<svg xmlns="http://www.w3.org/2000/svg" viewBox="0 0 1992.14 86.75"><g data-name="Calque 2"><path fill="#6882c7" d="M0 .07h86.61v86.65H0z"/><path d="M60 19.18a16.4 16.4 0 0 0-16.4-16.4h-.55a16.4 16.4 0 0 0-16.41 16.4C27 3.17 13.7-.6 0 .07V65.5c0 11.66 10.57 21.25 23.45 21.25a24.09 24.09 0 0 0 19.85-10v-.09.09a24.08 24.08 0 0 0 19.85 10c12.87 0 23.41-9.59 23.41-21.25V.07C73-.6 59.69 3.17 60 19.18ZM173.22.07h86.61v86.65h-86.61z" fill="#1f085e"/><path fill="#6e1751" d="M86.61.07h86.61v86.65H86.61z"/><path d="M233.22 19.18a16.4 16.4 0 0 0-16.4-16.4h-.55a16.4 16.4 0 0 0-16.41 16.4c.31-16-12.94-19.78-26.61-19.11V65.5c0 11.66 10.54 21.25 23.42 21.25a24.09 24.09 0 0 0 19.85-10v-.09.09a24.07 24.07 0 0 0 19.84 10c12.88 0 23.42-9.59 23.42-21.25V.07c-13.61-.67-26.87 3.1-26.56 19.11Z" fill="#4339b4"/><circle cx="129.93" cy="43.4" r="43.32" fill="#ab61f0"/><path fill="#4339b4" d="M346.47.07h86.61v86.65h-86.61z"/><path fill="#ab61f0" d="M259.86.07h86.61v86.65h-86.61z"/><path d="M406.48 19.18a16.41 16.41 0 0 0-16.41-16.4h-.55a16.41 16.41 0 0 0-16.41 16.4C373.42 3.17 360.17-.6 346.5.07V65.5c0 11.66 10.54 21.25 23.42 21.25a24.09 24.09 0 0 0 19.85-10v-.09.09a24.08 24.08 0 0 0 19.85 10c12.87 0 23.41-9.59 23.41-21.25V.07c-13.61-.67-26.86 3.1-26.55 19.11Z" fill="#6882c7"/><circle cx="303.18" cy="43.4" r="43.32" fill="#6e1751"/><path fill="#ab61f0" d="M519.69.07h86.61v86.65h-86.61z"/><path fill="#1f085e" d="M433.08.07h86.61v86.65h-86.61z"/><path d="M579.7 19.18a16.41 16.41 0 0 0-16.41-16.4h-.55a16.41 16.41 0 0 0-16.41 16.4c.31-16-12.94-19.78-26.61-19.11V65.5c0 11.66 10.54 21.25 23.42 21.25a24.09 24.09 0 0 0 19.85-10v-.09.09a24.08 24.08 0 0 0 19.85 10c12.87 0 23.41-9.59 23.41-21.25V.07c-13.61-.67-26.86 3.1-26.55 19.11Z" fill="#6e1751"/><circle cx="476.4" cy="43.4" r="43.32" fill="#4339b4"/><path fill="#6882c7" d="M692.91.07h86.61v86.65h-86.61z"/><path fill="#4339b4" d="M606.3.07h86.61v86.65H606.3z"/><path d="M752.92 19.18a16.41 16.41 0 0 0-16.41-16.4H736a16.41 16.41 0 0 0-16.41 16.4c.31-16-12.94-19.78-26.61-19.11V65.5c0 11.66 10.54 21.25 23.42 21.25a24.09 24.09 0 0 0 19.85-10v-.09.09a24.08 24.08 0 0 0 19.85 10c12.87 0 23.41-9.59 23.41-21.25V.07c-13.65-.67-26.9 3.1-26.59 19.11Z" fill="#1f085e"/><circle cx="649.62" cy="43.4" r="43.32" fill="#6882c7"/><path fill="#1f085e" d="M866.13.07h86.61v86.65h-86.61z"/><path fill="#6e1751" d="M779.52.07h86.61v86.65h-86.61z"/><path d="M926.13 19.18a16.4 16.4 0 0 0-16.4-16.4h-.55a16.41 16.41 0 0 0-16.41 16.4c.31-16-12.94-19.78-26.61-19.11V65.5c0 11.66 10.54 21.25 23.42 21.25a24.09 24.09 0 0 0 19.85-10v-.09.09a24.08 24.08 0 0 0 19.85 10c12.87 0 23.41-9.59 23.41-21.25V.07c-13.61-.67-26.86 3.1-26.56 19.11Z" fill="#4339b4"/><circle cx="822.84" cy="43.4" r="43.32" fill="#ab61f0"/><path fill="#4339b4" d="M1039.38.07h86.61v86.65h-86.61z"/><path fill="#ab61f0" d="M952.77.07h86.61v86.65h-86.61z"/><path d="M1099.39 19.18A16.41 16.41 0 0 0 1083 2.78h-.55a16.41 16.41 0 0 0-16.45 16.4c.31-16-12.94-19.78-26.6-19.11V65.5c0 11.66 10.53 21.25 23.41 21.25a24.09 24.09 0 0 0 19.85-10v-.09.09a24.08 24.08 0 0 0 19.85 10c12.88 0 23.41-9.59 23.41-21.25V.07c-13.59-.67-26.84 3.1-26.53 19.11Z" fill="#6882c7"/><circle cx="996.09" cy="43.4" r="43.32" fill="#6e1751"/><path fill="#ab61f0" d="M1212.6.07h86.61v86.65h-86.61z"/><path fill="#1f085e" d="M1125.99.07h86.61v86.65h-86.61z"/><path d="M1272.61 19.18a16.41 16.41 0 0 0-16.41-16.4h-.55a16.41 16.41 0 0 0-16.41 16.4c.31-16-12.94-19.78-26.61-19.11V65.5c0 11.66 10.54 21.25 23.42 21.25a24.09 24.09 0 0 0 19.85-10v-.09.09a24.08 24.08 0 0 0 19.85 10c12.88 0 23.41-9.59 23.41-21.25V.07c-13.61-.67-26.86 3.1-26.55 19.11Z" fill="#6e1751"/><circle cx="1169.31" cy="43.4" r="43.32" fill="#4339b4"/><path fill="#6882c7" d="M1385.82.07h86.61v86.65h-86.61z"/><path fill="#4339b4" d="M1299.21.07h86.61v86.65h-86.61z"/><path d="M1445.83 19.18a16.41 16.41 0 0 0-16.41-16.4h-.55a16.41 16.41 0 0 0-16.41 16.4c.31-16-12.94-19.78-26.61-19.11V65.5c0 11.66 10.54 21.25 23.42 21.25a24.09 24.09 0 0 0 19.85-10v-.09.09a24.08 24.08 0 0 0 19.85 10c12.87 0 23.41-9.59 23.41-21.25V.07c-13.61-.67-26.86 3.1-26.55 19.11Z" fill="#1f085e"/><circle cx="1342.53" cy="43.4" r="43.32" fill="#6882c7"/><path fill="#1f085e" d="M1559.04.07h86.61v86.65h-86.61z"/><path fill="#6e1751" d="M1472.43.07h86.61v86.65h-86.61z"/><path d="M1619.05 19.18a16.41 16.41 0 0 0-16.41-16.4h-.55a16.41 16.41 0 0 0-16.41 16.4c.31-16-12.94-19.78-26.61-19.11V65.5c0 11.66 10.54 21.25 23.42 21.25a24.09 24.09 0 0 0 19.85-10v-.09.09a24.08 24.08 0 0 0 19.85 10c12.87 0 23.41-9.59 23.41-21.25V.07c-13.6-.67-26.86 3.1-26.55 19.11Z" fill="#4339b4"/><circle cx="1515.75" cy="43.4" r="43.32" fill="#ab61f0"/><path fill="#4339b4" d="M1732.31.07h86.61v86.65h-86.61z"/><path fill="#ab61f0" d="M1645.7.07h86.61v86.65h-86.61z"/><path d="M1792.31 19.18a16.4 16.4 0 0 0-16.4-16.4h-.55a16.41 16.41 0 0 0-16.36 16.4c.31-16-12.94-19.78-26.61-19.11V65.5c0 11.66 10.54 21.25 23.42 21.25a24.09 24.09 0 0 0 19.85-10v-.09.09a24.08 24.08 0 0 0 19.85 10c12.87 0 23.41-9.59 23.41-21.25V.07c-13.66-.67-26.92 3.1-26.61 19.11Z" fill="#6882c7"/><circle cx="1689.02" cy="43.4" r="43.32" fill="#6e1751"/><path fill="#ab61f0" d="M1905.53.07h86.61v86.65h-86.61z"/><path fill="#1f085e" d="M1818.92.07h86.61v86.65h-86.61z"/><path d="M1965.53 19.18a16.4 16.4 0 0 0-16.4-16.4h-.55a16.4 16.4 0 0 0-16.41 16.4c.31-16-12.94-19.78-26.61-19.11V65.5c0 11.66 10.54 21.25 23.42 21.25a24.09 24.09 0 0 0 19.85-10v-.09.09a24.08 24.08 0 0 0 19.85 10c12.87 0 23.41-9.59 23.41-21.25V.07c-13.61-.67-26.86 3.1-26.56 19.11Z" fill="#6e1751"/><circle cx="1862.24" cy="43.4" r="43.32" fill="#4339b4"/></g></svg>